<svg width="12px" height="12px" viewBox="0 0 16 16" xmlns="http://www.w3.org/2000/svg" fill="currentColor" class="text-text-300"><path d="M1.05151 2.01938C1.05151 1.6604 1.34253 1.36938 1.70151 1.36938H14.2997C14.6587 1.36938 14.9497 1.6604 14.9497 2.01938V3.75415C14.9497 4.17594 14.7882 4.58171 14.4983 4.88811L10.6775 8.92663V12.2919C10.6775 12.5035 10.5745 12.702 10.4013 12.8237L6.42047 15.6214C6.222 15.7609 5.96236 15.7782 5.74709 15.6664C5.53181 15.5546 5.39672 15.3322 5.39672 15.0896V8.92982L1.51256 4.89331C1.21676 4.58589 1.05151 4.17585 1.05151 3.74923V2.01938ZM2.35151 2.66938V3.74923C2.35151 3.83973 2.38656 3.92671 2.44931 3.99192L6.48715 8.18814C6.62161 8.32787 6.69672 8.51425 6.69672 8.70817V13.8383L9.37754 11.9542V8.70768C9.37754 8.51596 9.45096 8.33152 9.58273 8.19225L13.554 3.99468C13.6154 3.92969 13.6497 3.84362 13.6497 3.75415V2.66938H2.35151Z"></path></svg>
