<svg width="12px" height="12px" viewBox="0 0 14 14" xmlns="http://www.w3.org/2000/svg" fill="rgb(var(--color-decrease-100))" color="rgb(var(--color-decrease-100))"><g clip-path="url(#21clip0_9738_1914)"><path fill-rule="evenodd" clip-rule="evenodd" d="M8.29866 9.68576C6.80431 9.81526 4.35783 9.39263 2.69856 7.73336C0.378749 5.41355 0.632053 1.39908 1.12015 0.910985C1.60825 0.422885 5.62272 0.169582 7.94253 2.48939C9.60176 4.14862 10.0244 6.59503 9.89494 8.0894C10.7787 8.00941 11.9185 8.14177 12.6345 8.85771C13.089 9.31221 13.3231 9.92271 13.4152 10.5319C12.6423 10.5118 11.6192 10.9819 11.4052 11.1959C11.1912 11.4099 10.721 12.433 10.7411 13.206C10.132 13.1138 9.52149 12.8797 9.06699 12.4252C8.35107 11.7093 8.21869 10.5695 8.29866 9.68576ZM3.52857 3.31938C3.22432 3.62363 2.73103 3.62363 2.42677 3.31938C2.12252 3.01513 2.12252 2.52184 2.42677 2.21758C2.73103 1.91333 3.22432 1.91333 3.52857 2.21758C3.83282 2.52184 3.83282 3.01513 3.52857 3.31938Z"></path></g><defs><clipPath id="21clip0_9738_1914"><rect width="13.2061" height="13.2061" transform="translate(0.793762)"></rect></clipPath></defs></svg>
