<svg width="14px" height="14px" viewBox="0 0 20 20" fill="currentColor" xmlns="http://www.w3.org/2000/svg"><rect x="13.871" y="4" width="3" height="16.7882" transform="rotate(45 13.871 4)" fill="#85E130"></rect><path d="M12 5C12 3.34315 13.3431 2 15 2H18V5C18 6.65685 16.6569 8 15 8H12V5ZM6.79753 8.73301C5.62595 7.56144 5.62596 5.66195 6.79753 4.49037L8.04016 3.24774 9.2828 4.49038C10.4544 5.66195 10.4544 7.56144 9.2828 8.73301L8.04016 9.97565 6.79753 8.73301ZM2.18022 13.3502C1.00865 12.1786 1.00865 10.2791 2.18022 9.10756L3.42285 7.86493 4.66549 9.10756C5.83706 10.2791 5.83706 12.1786 4.66549 13.3502L3.42285 14.5928 2.18022 13.3502ZM11.2365 10.7568C12.4081 9.58524 14.3076 9.58525 15.4792 10.7568L16.7218 11.9995 15.4792 13.2421C14.3076 14.4137 12.4081 14.4137 11.2365 13.2421L9.99389 11.9995 11.2365 10.7568ZM6.61476 15.3786C7.78634 14.2071 9.68583 14.2071 10.8574 15.3786L12.1 16.6213 10.8574 17.8639C9.68583 19.0355 7.78634 19.0355 6.61476 17.8639L5.37213 16.6213 6.61476 15.3786Z" fill="#85E130"></path></svg>
