<svg width="14" height="14" viewBox="0 0 16 16" xmlns="http://www.w3.org/2000/svg" fill="rgb(146,197,253)" size="14" class="cursor-pointer text-text-200"><path d="M7.96058.426157C8.21172.424825 8.44115.568286 8.54992.794654L10.8577 5.59793 15.0787 4.28681C15.3126 4.21417 15.5674 4.27914 15.738 4.45489 15.9085 4.63063 15.9658 4.88732 15.8862 5.11891L13.5074 12.0372C13.4171 12.2996 13.1702 12.4758 12.8927 12.4758H2.99489C2.71395 12.4758 2.46482 12.2954 2.37726 12.0284L.108075 5.11014C.0322681 4.87902.091842 4.62492.262473 4.45157.433105 4.27823.686237 4.21466.918522 4.28682L5.13354 5.59613 7.37519.800882C7.48155.573374 7.70945.427488 7.96058.426157ZM7.97208 2.59382 6.07108 6.66035C5.93349 6.95468 5.5997 7.10221 5.28942 7.00583L1.73595 5.90201 3.46576 11.1758H12.4289L14.24 5.90861 10.7076 7.00583C10.3998 7.10143 10.0684 6.95707 9.92887 6.66658L7.97208 2.59382ZM3.03719 14.9235C3.03719 14.5646 3.32822 14.2736 3.6872 14.2736L12.313 14.2738C12.6719 14.2738 12.963 14.5648 12.9629 14.9238 12.9629 15.2828 12.6719 15.5738 12.3129 15.5738L3.68717 15.5736C3.32819 15.5736 3.03718 15.2825 3.03719 14.9235Z"></path></svg>
