<svg width="12px" height="12px" viewBox="0 0 16 16" xmlns="http://www.w3.org/2000/svg" fill="rgb(221,89,116)" color="rgb(221,89,116)"><path d="M7.5999 0.907918C7.8459 0.757582 8.15536 0.757582 8.40136 0.907919L14.2733 4.49631C14.5675 4.67611 14.5675 5.10341 14.2733 5.2832L8.40136 8.87159C8.15536 9.02193 7.8459 9.02193 7.5999 8.87159L1.72798 5.2832C1.43377 5.10341 1.43377 4.67611 1.72798 4.49631L7.5999 0.907918Z"></path><path d="M14.2713 7.56186C14.5657 7.7416 14.5657 8.16918 14.2713 8.34893L8.40064 11.9269C8.15502 12.0766 7.84606 12.0766 7.60044 11.9269L1.72977 8.34893C1.43545 8.16917 1.43544 7.74161 1.72977 7.56186L2.78608 6.91738L7.58449 10.0019C7.83761 10.1645 8.16258 10.1646 8.41565 10.0019L13.2131 6.91738L14.2713 7.56186Z"></path><path d="M14.2713 10.7179C14.5657 10.8977 14.5657 11.3252 14.2713 11.505L8.40064 15.0829C8.15502 15.2326 7.84606 15.2326 7.60044 15.0829L1.72977 11.505C1.43542 11.3252 1.43547 10.8977 1.72977 10.7179L2.84893 10.0349L7.58449 13.0791C7.8376 13.2417 8.16259 13.2418 8.41565 13.0791L13.1503 10.0349L14.2713 10.7179Z"></path></svg>
