<svg width="12px" height="12px" viewBox="0 0 20 20" xmlns="http://www.w3.org/2000/svg" fill="rgb(154,159,170)"><path fill-rule="evenodd" clip-rule="evenodd" d="M10 20C15.5228 20 20 15.5228 20 10C20 4.47715 15.5228 0 10 0C4.47715 0 0 4.47715 0 10C0 15.5228 4.47715 20 10 20ZM6.46477 5.50122C6.3666 5.50122 6.27131 5.54164 6.19913 5.61094L4.38873 7.42134C4.27035 7.53972 4.35408 7.74184 4.52155 7.74184H13.6861C13.7872 7.74184 13.8825 7.70141 13.9518 7.63212L15.7622 5.82172C15.8806 5.70334 15.7968 5.50122 15.6293 5.50122H6.46477ZM6.46477 12.259C6.36371 12.259 6.26842 12.2995 6.19913 12.3688L4.38873 14.1791C4.27035 14.2975 4.35408 14.4996 4.52155 14.4996H13.6861C13.7872 14.4996 13.8825 14.4592 13.9518 14.3899L15.7622 12.5795C15.8806 12.4612 15.7968 12.259 15.6293 12.259H6.46477ZM13.9518 8.97032C13.8825 8.90102 13.7872 8.8606 13.6861 8.8606H4.52155C4.35408 8.8606 4.27035 9.06271 4.38873 9.1811L6.19913 10.9915C6.26842 11.0608 6.36371 11.1012 6.46477 11.1012H15.6293C15.7968 11.1012 15.8806 10.8991 15.7622 10.7807L13.9518 8.97032Z"></path></svg>
