<svg width="12px" height="12px" viewBox="0 0 20 20" fill="currentColor" xmlns="http://www.w3.org/2000/svg"><path d="M0.717163 10.008C0.717163 14.9829 4.75016 19.0159 9.72513 19.0159C11.4074 19.0159 12.9819 18.5548 14.3292 17.7521C15.2383 18.6844 16.6381 18.8871 17.7331 18.2877L16.1017 16.3706C17.7277 14.741 18.7331 12.4919 18.7331 10.008C18.7331 5.03301 14.7001 1 9.72513 1C6.4942 1 5.22115 2.126 5.22115 3.25199H9.72513C11.5907 3.25199 13.1031 4.76437 13.1031 6.62998C13.1031 8.49559 11.5907 10.008 9.72513 10.008H0.717163Z" fill="#715BF8"></path><path fill-rule="evenodd" clip-rule="evenodd" d="M9.72514 6.62998L9.72514 1C8.44024 1.26614 7.47314 2.42533 7.47314 3.81499C7.47314 5.20465 8.44024 6.36385 9.72514 6.62998Z" fill="#715BF8"></path><circle cx="1" cy="1" r="1" transform="matrix(-1 0 0 1 4.73309 11)" fill="#111111"></circle></svg>
